<svg xmlns="http://www.w3.org/2000/svg" width="152" height="130.457" viewBox="0 0 152 130.457"><path d="M61.339,69.512a2.992,2.992,0,0,1,2.992-2.992H79.142a2.992,2.992,0,0,1,0,5.984H64.331A2.992,2.992,0,0,1,61.339,69.512Zm40.112-9.575H92.756a2.992,2.992,0,0,1,0-5.984H113.7a15.559,15.559,0,0,1,0,31.118H76a2.992,2.992,0,0,1,0-5.984h25.45a15.509,15.509,0,0,1,0-19.15Zm2.676,9.575a9.575,9.575,0,1,0,9.575-9.575A9.6,9.6,0,0,0,104.126,69.512ZM38.3,79.087A9.614,9.614,0,0,1,30.007,74.3a2.992,2.992,0,1,0-5.178,3A15.617,15.617,0,0,0,38.3,85.071,2.993,2.993,0,1,0,38.3,79.087ZM30,64.737a9.613,9.613,0,0,1,8.282-4.8,2.992,2.992,0,0,0-.006-5.984h-.006a15.614,15.614,0,0,0-13.454,7.8C22.82,65.2,28,68.193,30,64.737Zm17.877,4.775a9.564,9.564,0,0,1-1.263,4.757c-1.983,3.454,3.208,6.433,5.19,2.979a15.575,15.575,0,0,0-.049-15.556A2.992,2.992,0,1,0,46.581,64.7,9.571,9.571,0,0,1,47.874,69.512Zm28.12,90.961a2.992,2.992,0,1,0,2.992,2.992A3,3,0,0,0,75.994,160.472ZM152,47.968v78.992a11.982,11.982,0,0,1-11.969,11.968H95.342l1.465,11.72a1.4,1.4,0,0,0,.892,1.194,12.206,12.206,0,0,1,6.215,4.309,12.078,12.078,0,0,1,2.457,7.313,3,3,0,0,1-2.992,2.992H89.458a2.992,2.992,0,1,1,0-5.984H99.608A6.3,6.3,0,0,0,96,157.582a7.337,7.337,0,0,1-5.131-6.188L89.31,138.929H62.69l-1.558,12.465A7.343,7.343,0,0,1,56,157.582a6.3,6.3,0,0,0-3.609,2.89H62.529a2.992,2.992,0,0,1,0,5.984H48.622a3,3,0,0,1-2.992-2.992A12.132,12.132,0,0,1,54.3,151.843a1.4,1.4,0,0,0,.892-1.191l1.465-11.723H11.969A11.982,11.982,0,0,1,0,126.961V47.968A11.982,11.982,0,0,1,11.969,36H140.032A11.982,11.982,0,0,1,152,47.968ZM89.764,114.992H39.5v5.984H89.764Zm-56.252,5.984V103.024H5.984v17.953Zm112.5-11.969v-5.984H39.5v5.984ZM5.984,47.968V97.039H146.016V47.968a5.991,5.991,0,0,0-5.984-5.984H11.969A5.991,5.991,0,0,0,5.984,47.968Zm140.031,78.992H5.984a5.991,5.991,0,0,0,5.984,5.984H140.032A5.991,5.991,0,0,0,146.016,126.961Zm0-5.984v-5.984H95.748v5.984Z" transform="translate(0 -36)"/></svg>