<svg xmlns="http://www.w3.org/2000/svg" width="142.94" height="125.032" viewBox="0 0 142.94 125.032">
  <path id="Path_1" data-name="Path 1" d="M141.718,56H17.222c-5.09.007-9.215,4.393-9.222,9.806v83.355c.007,5.413,4.132,9.8,9.222,9.806H64.744l-3.075,9.806H54.11a2.382,2.382,0,0,0-2.305,2.452v4.9H31.055a2.456,2.456,0,0,0,0,4.9H132.5a2.456,2.456,0,0,0,0-4.9h-25.36v-4.9a2.382,2.382,0,0,0-2.305-2.452H97.271L94.2,158.968h47.522c5.09-.007,9.215-4.393,9.222-9.806V65.806C150.934,60.393,146.809,56.007,141.718,56ZM102.525,173.677v2.452H56.415v-2.452Zm-35.994-4.9,3.075-9.806H89.335l3.075,9.806Zm79.8-19.613a4.77,4.77,0,0,1-4.611,4.9H17.222a4.77,4.77,0,0,1-4.611-4.9v-4.9H146.329ZM47.1,117.29l-.865,22.065H43.545L42.68,117.29Zm-4.1-4.9,1.539-9.806h.7l1.539,9.806Zm1.891-14.71c-2.5,0-4.611-3.368-4.611-7.355,0-2.516,2.415-6.172,4.605-8.749C46.856,83.9,49.5,87.626,49.5,90.323,49.5,94.31,47.386,97.677,44.888,97.677Zm25.089-4.9.271.579v1.872H61.026V93.353l.271-.579Zm-6.375-4.9,2.035-4.324,2.035,4.324Zm6.646,12.258v38.919a2.694,2.694,0,0,0,.02.306H61.006a2.688,2.688,0,0,0,.02-.306V100.129ZM91,90.323h6.916v4.9H95.609a2.456,2.456,0,0,0,0,4.9h2.305v4.9H91a2.456,2.456,0,0,0,0,4.9h6.916v4.9H95.609a2.456,2.456,0,0,0,0,4.9h2.305v4.9H91a2.456,2.456,0,0,0,0,4.9h6.916v9.806H81.776V80.516H97.914v4.9H91a2.456,2.456,0,0,0,0,4.9Zm27.666,29.419v19.306a2.678,2.678,0,0,0,.02.306h-9.262a2.694,2.694,0,0,0,.02-.306V119.742Zm-9.222-4.9v-1.872l4.611-9.806,4.611,9.806v1.872Zm36.888,24.516H123.254a2.687,2.687,0,0,0,.02-.306V112.387a2.606,2.606,0,0,0-.242-1.1l-6.916-14.71a2.249,2.249,0,0,0-4.127,0l-6.916,14.71a2.606,2.606,0,0,0-.242,1.1v26.661a2.687,2.687,0,0,0,.02.306h-2.326V78.065a2.382,2.382,0,0,0-2.306-2.452H79.47a2.382,2.382,0,0,0-2.305,2.452v61.29H74.839a2.685,2.685,0,0,0,.02-.306V92.774a2.606,2.606,0,0,0-.242-1.1L67.7,76.967a2.249,2.249,0,0,0-4.127,0l-6.916,14.71a2.606,2.606,0,0,0-.242,1.1v46.274a2.692,2.692,0,0,0,.02.306H50.845L51.8,114.94c0-.055,0-.11,0-.169V114.7q-.008-.129-.029-.257v-.006L49.64,100.825c2.677-2.148,4.47-6.052,4.47-10.5,0-6.3-6.867-13.279-7.651-14.054a2.211,2.211,0,0,0-3.141,0c-.784.775-7.651,7.753-7.651,14.054,0,4.45,1.793,8.354,4.47,10.5L38,114.434v.006q-.021.128-.029.257v.074c0,.058,0,.113,0,.169l.957,24.415H12.611V65.806a4.77,4.77,0,0,1,4.611-4.9h124.5a4.77,4.77,0,0,1,4.611,4.9Z" transform="translate(-8 -56)" fill="#292929"/>
</svg>
