<svg xmlns="http://www.w3.org/2000/svg" width="152" height="151.658" viewBox="0 0 152 151.658"><path d="M140.28.575a11.745,11.745,0,0,0-11.345,8.74H87.723V3.552A2.969,2.969,0,0,0,84.755.584h-17.5a2.969,2.969,0,0,0-2.969,2.969V9.315H23.065a11.7,11.7,0,1,0,0,5.937H54.188A43.639,43.639,0,0,0,34.036,41.218h-7.39a2.969,2.969,0,0,0-2.969,2.969V61.649a2.969,2.969,0,0,0,2.969,2.969h7.385A43.272,43.272,0,0,0,49.8,87.685l-4.12,8.768a2.969,2.969,0,0,0,1.618,4.032,12.151,12.151,0,0,1,7.482,14.082,10.085,10.085,0,0,0,2.263,19.918h.178v14.779a2.969,2.969,0,0,0,2.969,2.969H91.814a2.969,2.969,0,0,0,2.969-2.969V134.485h.178a10.085,10.085,0,0,0,2.263-19.918,12.148,12.148,0,0,1,7.489-14.081,2.969,2.969,0,0,0,1.619-4.033l-4.089-8.7A43.268,43.268,0,0,0,118.1,64.618h7.376a2.969,2.969,0,0,0,2.969-2.969V44.187a2.969,2.969,0,0,0-2.969-2.969H118.1A43.658,43.658,0,0,0,97.954,15.252h30.982A11.721,11.721,0,1,0,140.28.575ZM11.728,18.046a5.767,5.767,0,1,1,5.782-5.763A5.783,5.783,0,0,1,11.728,18.046ZM70.222,6.521H81.786V18.046H70.222ZM36.3,58.68H29.615V47.155H41.179V58.68H36.3ZM88.845,146.3H63.154V134.485H88.845V146.3Zm10.282-21.9a4.163,4.163,0,0,1-4.166,4.151H57.038a4.15,4.15,0,1,1-.009-8.3H94.971a4.162,4.162,0,0,1,4.157,4.15Zm16.656-77.241h6.727V58.68H110.947V47.155h4.837ZM111.9,41.218h-3.919a2.969,2.969,0,0,0-2.969,2.969V61.649a2.969,2.969,0,0,0,2.969,2.969H111.9A37.35,37.35,0,0,1,99.656,82.253L97.53,77.731a2.969,2.969,0,0,0-5.373,2.526l3.7,7.864c0,.008.007.017.012.025l3.853,8.2a18.1,18.1,0,0,0-8.576,17.967H60.858a18.1,18.1,0,0,0-8.569-17.967L73.036,52.188V79.9a10,10,0,1,0,5.937,0V52.2l1.866,3.974a2.969,2.969,0,0,0,5.375-2.524L78.692,37.627a3,3,0,0,0-5.374,0L52.384,82.178A37.349,37.349,0,0,1,40.23,64.617h3.918a2.969,2.969,0,0,0,2.969-2.969V44.186a2.969,2.969,0,0,0-2.969-2.969H40.236A37.733,37.733,0,0,1,64.284,17.193v3.822a2.969,2.969,0,0,0,2.969,2.969h17.5a2.969,2.969,0,0,0,2.969-2.969V17.146A37.746,37.746,0,0,1,111.9,41.218ZM76,85.388a4.046,4.046,0,1,1-4.066,4.05A4.058,4.058,0,0,1,76,85.388ZM140.28,18.046a5.767,5.767,0,1,1,5.782-5.763A5.783,5.783,0,0,1,140.28,18.046Z" transform="translate(0 -0.575)"/><path d="M290.427,224.171v.028a10.014,10.014,0,1,0,0-.028Z" transform="translate(-212.508 -156.884)"/></svg>